<svg width="77" height="61" viewBox="0 0 77 61" fill="none" xmlns="http://www.w3.org/2000/svg">
<path d="M15.2835 30.3372H0V0H30.567V15.1686H15.2835V30.3372Z" fill="black"/>
<path d="M61.7422 38.2905H57.8428V44.993H61.501C64.0203 44.993 65.4674 44.7011 65.8424 44.1158C66.2719 43.4518 66.4851 42.7336 66.4851 41.9615C66.4851 39.5137 64.9041 38.2905 61.7422 38.2905Z" fill="black"/>
<path d="M32.6952 2.49414V17.6612H17.4102V61.0003H76.3626V2.49414H32.6952ZM65.3194 59.6737C64.0201 58.849 61.728 56.1634 58.4463 51.6153H57.8441V59.6737H50.0467V31.7472H63.0304C67.6254 31.7472 70.7344 33.0769 72.3558 35.7363C73.5882 37.2914 74.2044 39.1802 74.2044 41.4009V41.8797C74.2044 46.4016 71.7863 49.447 66.9485 51.0161C70.8075 55.9364 73.4124 58.8228 74.7662 59.6737H65.3194Z" fill="black"/>
</svg>
