<svg width="367" height="257" viewBox="0 0 367 257" fill="none" xmlns="http://www.w3.org/2000/svg">
<path d="M107.548 76.1533H69.4717V0H145.625V38.0767H107.548V76.1533Z" fill="black"/>
<path d="M223.294 96.1182H213.579V112.943H222.693C228.969 112.943 232.575 112.21 233.509 110.741C234.579 109.074 235.11 107.271 235.11 105.333C235.11 99.1885 231.171 96.1182 223.294 96.1182Z" fill="black"/>
<path d="M150.928 6.26123V44.334H112.848V153.125H259.719V6.26123H150.928ZM232.206 149.795C228.969 147.725 223.259 140.983 215.083 129.567H213.583V149.795H194.157V79.6931H226.504C237.952 79.6931 245.697 83.031 249.737 89.7066C252.807 93.6104 254.342 98.3516 254.342 103.926V105.128C254.342 116.479 248.318 124.124 236.265 128.062C245.879 140.413 252.369 147.659 255.742 149.795H232.206Z" fill="black"/>
<path d="M23.0601 232.433H21.4552V254.073H0.672363V179.083H35.2755C47.5219 179.083 55.8064 182.653 60.1289 189.794C63.4124 193.973 65.0561 199.044 65.0561 205.006V206.293C65.0561 218.435 58.6092 226.611 45.7193 230.824C56.0041 244.036 62.9472 251.786 66.5564 254.073H41.3813C37.9155 251.859 31.8098 244.645 23.0601 232.433ZM21.4552 196.652V214.647H31.205C37.9194 214.647 41.7728 213.86 42.773 212.29C43.9166 210.507 44.4865 208.576 44.4865 206.506C44.4865 199.935 40.2726 196.652 31.8447 196.652H21.4552Z" fill="black"/>
<path d="M93.9259 197.617C108.96 197.617 118.531 205.402 122.637 220.97C123.35 223.936 123.706 227.596 123.706 231.953V232.969H84.2846V233.182C85.4631 236.182 87.1766 238.233 89.4289 239.342C91.534 240.451 93.5343 241.001 95.43 241.001H96.1782C98.6787 241.001 101.071 239.574 103.358 236.717H122.64V236.931C115.534 249.429 106.537 255.678 95.6432 255.678C85.5019 255.678 77.7175 252.67 72.2902 246.653C66.8628 240.637 64.1492 234.073 64.1492 226.967C64.1492 218.718 67.0063 211.802 72.7205 206.212C78.4269 200.626 85.498 197.757 93.9259 197.617ZM84.0714 220.327H103.784V220.164C103.784 218.664 102.714 217.039 100.57 215.291C98.605 214.291 96.6047 213.791 94.5694 213.791C88.7466 213.791 85.2499 215.969 84.0714 220.327Z" fill="black"/>
<path d="M126.92 254.073V179.083H148.346V254.073H126.92Z" fill="black"/>
<path d="M176.309 255.464C172.882 255.464 169.451 254.821 166.024 253.538C156.026 248.502 151.025 239.396 151.025 226.219V225.575C151.025 220.256 152.239 215.469 154.669 211.22C159.918 203.222 166.776 199.222 175.239 199.222H178.023C182.558 199.222 186.877 200.935 190.986 204.362V199.435H212.412L212.358 254.069H190.878V250.32H190.664C186.555 253.751 181.771 255.464 176.309 255.464ZM173.739 227.719C173.739 230.968 174.095 233.503 174.809 235.325C176.096 238.326 178.666 239.826 182.523 239.826C183.275 239.683 183.989 239.613 184.667 239.613C189.238 238.721 191.521 234.616 191.521 227.293C191.378 221.9 190.878 218.83 190.021 218.078C190.021 216.256 187.734 215.116 183.167 214.651H181.88C180.845 214.651 179.558 214.864 178.023 215.294C175.165 217.186 173.739 220.757 173.739 226.006V227.719Z" fill="black"/>
<path d="M213.215 199.435H236.998L245.352 227.288L254.137 199.435H277.277C262.134 235.608 254.563 253.82 254.563 254.068H235.924L213.215 199.435Z" fill="black"/>
<path d="M278.401 194.081V179.083H299.827V194.081H278.401ZM299.827 199.435V254.069H278.401V199.435H299.827Z" fill="black"/>
<path d="M335.179 196.543C346.39 196.543 355.462 201.4 362.389 211.112C365.103 216.004 366.46 220.644 366.46 225.037V228.037C366.46 235.787 362.959 242.858 355.962 249.25C349.782 254.251 342.642 256.748 334.536 256.748C323.181 256.748 314.179 252.034 307.538 242.606C304.538 237.857 303.038 232.716 303.038 227.18V226.324C303.038 215.469 308.321 206.828 318.893 200.4C323.933 197.83 329.36 196.543 335.179 196.543ZM325.968 225.467V228.254C325.968 234.79 328.038 238.504 332.182 239.396L335.183 239.609C338.967 239.609 341.397 238.109 342.467 235.108C343.324 232.538 343.754 229.681 343.754 226.537C343.754 217.965 340.827 213.682 334.97 213.682H334.326C330.86 213.682 328.503 215.252 327.255 218.396C326.395 220.505 325.968 222.862 325.968 225.467Z" fill="black"/>
</svg>
