<svg width="25" height="37" viewBox="0 0 25 37" fill="none" xmlns="http://www.w3.org/2000/svg">
<path d="M13.375 35.0161C10.3417 35.0161 7.325 34.2495 5.025 32.7161C0.991667 30.0161 0.991667 25.6161 5.025 22.9328C9.60833 19.8661 17.125 19.8661 21.7083 22.9328" stroke="white" stroke-width="2.5" stroke-linecap="round" stroke-linejoin="round"/>
<path d="M13.6589 16.7833C13.4922 16.7667 13.2923 16.7667 13.1089 16.7833C9.14225 16.65 5.99225 13.4 5.99225 9.4C5.97558 5.31667 9.29225 2 13.3756 2C17.4589 2 20.7756 5.31667 20.7756 9.4C20.7756 13.4 17.6089 16.65 13.6589 16.7833Z" stroke="white" stroke-width="2.5" stroke-linecap="round" stroke-linejoin="round"/>
<path d="M21 32.1957L18.4635 34.7391C18.3029 34.8986 18.0988 34.9783 17.8513 34.9783C17.6038 34.9783 17.3997 34.8986 17.2391 34.7391C17.0797 34.5797 17 34.3768 17 34.1304C17 33.8841 17.0797 33.6812 17.2391 33.5217L19.7826 30.9783L17.2391 28.4635C17.0797 28.3029 17 28.0988 17 27.8513C17 27.6038 17.0797 27.3997 17.2391 27.2391C17.3986 27.0797 17.6014 27 17.8478 27C18.0942 27 18.2971 27.0797 18.4565 27.2391L21 29.7826L23.5148 27.2391C23.6754 27.0797 23.8794 27 24.127 27C24.3745 27 24.5785 27.0797 24.7391 27.2391C24.913 27.413 25 27.6197 25 27.8591C25 28.0986 24.913 28.2977 24.7391 28.4565L22.1957 30.9783L24.7391 33.5148C24.8985 33.6754 24.9783 33.8794 24.9783 34.127C24.9783 34.3745 24.8985 34.5786 24.7391 34.7391C24.5652 34.913 24.3588 35 24.12 35C23.8812 35 23.6817 34.913 23.5217 34.7391L21 32.1957Z" fill="white"/>
</svg>
