<svg width="42" height="42" viewBox="0 0 42 42" fill="none" xmlns="http://www.w3.org/2000/svg">
<path d="M16.0302 19.023C15.8552 19.0055 15.6452 19.0055 15.4527 19.023C11.2877 18.883 7.98022 15.4705 7.98022 11.2705C7.98022 6.98299 11.4452 3.50049 15.7502 3.50049C20.0377 3.50049 23.5202 6.98299 23.5202 11.2705C23.5027 15.4705 20.1952 18.883 16.0302 19.023Z" stroke="white" stroke-width="2.625" stroke-linecap="round" stroke-linejoin="round"/>
<path d="M28.7172 6.99951C32.1122 6.99951 34.8422 9.74701 34.8422 13.1245C34.8422 16.432 32.2172 19.127 28.9447 19.2495C28.8047 19.232 28.6472 19.232 28.4897 19.2495" stroke="white" stroke-width="2.625" stroke-linecap="round" stroke-linejoin="round"/>
<path d="M7.2805 25.4795C3.0455 28.3145 3.0455 32.9345 7.2805 35.752C12.093 38.972 19.9855 38.972 24.798 35.752C29.033 32.917 29.033 28.297 24.798 25.4795C20.003 22.277 12.1105 22.277 7.2805 25.4795Z" stroke="white" stroke-width="2.625" stroke-linecap="round" stroke-linejoin="round"/>
<path d="M32.0947 35.0005C33.3547 34.738 34.5447 34.2305 35.5247 33.478C38.2547 31.4305 38.2547 28.053 35.5247 26.0055C34.5622 25.2705 33.3897 24.7805 32.1472 24.5005" stroke="white" stroke-width="2.625" stroke-linecap="round" stroke-linejoin="round"/>
</svg>
